<?xml version="1.0" encoding="utf-8"?>
<!-- Generator: Adobe Illustrator 19.0.1, SVG Export Plug-In . SVG Version: 6.00 Build 0)  -->
<svg version="1.1" id="Layer_1" zoomAndPan="disable"
	 xmlns="http://www.w3.org/2000/svg" xmlns:xlink="http://www.w3.org/1999/xlink" x="0px" y="0px" viewBox="-521 295 36 18"
	 style="enable-background:new -521 295 36 18;" xml:space="preserve">
<style type="text/css">
	.st0{fill:#FFFFFF;}
	.st1{fill:#333333;}
</style>
<path class="st0" d="M-544.8,301.9c0,2.8-4.2,2.8-4.2,0C-549,299-544.8,299-544.8,301.9"/>
<circle class="st0" cx="-546.9" cy="295.5" r="2.1"/>
<circle class="st0" cx="-553.3" cy="295.5" r="2.1"/>
<circle class="st0" cx="-540.5" cy="295.5" r="2.1"/>
<circle class="st0" cx="-546.9" cy="289.1" r="2.1"/>
<circle class="st0" cx="-553.3" cy="289.1" r="2.1"/>
<circle class="st0" cx="-540.5" cy="289.1" r="2.1"/>
<circle class="st0" cx="-559.7" cy="289.1" r="2.1"/>
<circle class="st0" cx="-534.2" cy="289.1" r="2.1"/>
<path class="st1" d="M-506.9,301.3c0,0.3-0.1,0.5-0.5,0.5l-3.1,0c-0.3,0-0.5-0.1-0.5-0.5v-3.1c0-0.4,0.2-0.5,0.5-0.5h0.1
	c0.3,0,0.5,0.1,0.5,0.5v1.8l2.1-2.1c0.2-0.2,0.4-0.3,0.7,0l0,0c0.3,0.3,0.2,0.5,0,0.7l-2.1,2.1h1.8
	C-507,300.7-506.9,300.9-506.9,301.3L-506.9,301.3z M-507.4,300.1h-0.3l1.1-1.1c0.2-0.2,0.3-0.5,0.4-0.7c0-0.3-0.1-0.6-0.4-0.8l0,0
	c-0.2-0.2-0.5-0.4-0.8-0.4c-0.3,0-0.5,0.1-0.8,0.4l-1.1,1.1v-0.3c0-0.4-0.1-0.6-0.3-0.8c-0.2-0.2-0.5-0.3-0.8-0.3h-0.1
	c-0.7,0-1.1,0.4-1.1,1.1v3.1c0,0.7,0.4,1.1,1.1,1.1l3.1,0c0.4,0,0.6-0.1,0.8-0.3c0.2-0.2,0.3-0.5,0.3-0.8v-0.1
	c0-0.3-0.1-0.6-0.3-0.8C-506.8,300.2-507.1,300.1-507.4,300.1z"/>
<path class="st1" d="M-491.5,301.3c0,0.8-0.4,1-1,1h-1.8c-0.2,0-0.5,0.1-0.7,0.4l-8.7,8.7c-0.3,0.3-0.5,0.4-0.7,0.4h-2.7
	c-0.7,0-1-0.2-1-1v-0.1c0-0.8,0.4-1,1-1h1.8c0.2,0,0.5-0.1,0.7-0.4l8.7-8.7c0.3-0.3,0.5-0.4,0.7-0.4h2.7c0.7,0,1,0.2,1,1V301.3z
	 M-508.6,311.8h-1.3c-0.7,0-1-0.2-1-1v-0.1c0-0.8,0.4-1,1-1h1.3c-0.2,0.3-0.3,0.6-0.3,1v0.1C-508.8,311.2-508.7,311.6-508.6,311.8z
	 M-502.4,304.2v1.8l-2.7,2.7c-0.2,0.2-0.3,0.2-0.3,0.2h-1.7L-502.4,304.2z M-500.7,298.9h0.2c1.4,0,2.2,0.5,2.2,2.2v0.3
	c0,0.2,0,0.4,0,0.6l-3.4,3.4c0-0.6,0-1.2,0-1.4c0-0.5-0.3-1.6-0.3-2.9C-502,299.7-501.7,298.9-500.7,298.9z M-500.9,296.2
	c0.6-0.2,1.1,0,1.3,0.7l0,0.1c0.2,0.8-0.1,1.1-0.7,1.3c-0.6,0.2-1.1,0-1.3-0.7l0-0.1C-501.8,296.7-501.5,296.4-500.9,296.2z
	 M-496.5,300.1l-1.1,1.1v-0.2c0-0.4,0-0.7-0.1-1L-496.5,300.1L-496.5,300.1z M-491.3,299.8c-0.3-0.3-0.7-0.4-1.2-0.4h-2.7
	c0,0,0,0,0,0c0,0,0,0-0.1,0h-2.7c-0.1-0.2-0.3-0.4-0.4-0.6c-0.2-0.2-0.4-0.3-0.7-0.4c0,0,0.1-0.1,0.1-0.1c0.2-0.4,0.3-0.9,0.1-1.4
	l0-0.1c-0.3-1.1-1.1-1.3-1.5-1.3c-0.2,0-0.4,0-0.6,0.1c-0.5,0.1-0.8,0.4-1.1,0.7c-0.2,0.4-0.3,0.9-0.1,1.4l0,0.1
	c0.1,0.3,0.2,0.6,0.4,0.8c-0.2,0.2-0.4,0.3-0.5,0.5c-0.3,0.5-0.4,1.1-0.4,1.9c0,0.8,0.1,1.6,0.2,2.1c0,0,0,0.1,0,0.1l-5.4,5.4
	c-0.2,0.2-0.3,0.2-0.3,0.2h-1.7c-0.5,0-0.9,0.1-1.2,0.4c-0.3,0.3-0.5,0.7-0.5,1.3v0.1c0,0.6,0.2,1,0.5,1.3c0.3,0.3,0.7,0.4,1.2,0.4
	h2.7c0,0,0,0,0,0c0,0,0,0,0.1,0h2.7c0.4,0,0.8-0.2,1.2-0.6l8.7-8.7c0.2-0.2,0.3-0.2,0.3-0.2h1.7c0.5,0,0.9-0.1,1.2-0.4
	c0.3-0.3,0.5-0.7,0.5-1.3v-0.1C-490.8,300.6-491,300.1-491.3,299.8z"/>
</svg>
