<?xml version="1.0" encoding="utf-8"?>
<!-- Generator: Adobe Illustrator 19.0.1, SVG Export Plug-In . SVG Version: 6.00 Build 0)  -->
<svg version="1.1" id="Layer_1" zoomAndPan="disable"
	 xmlns="http://www.w3.org/2000/svg" xmlns:xlink="http://www.w3.org/1999/xlink" x="0px" y="0px" viewBox="-521 295 36 18"
	 style="enable-background:new -521 295 36 18;" xml:space="preserve">
<style type="text/css">
	.st0{fill:#FFFFFF;}
</style>
<path class="st0" d="M-1065.8,596.9c0,2.8-4.2,2.8-4.2,0C-1070,594-1065.8,594-1065.8,596.9"/>
<circle class="st0" cx="-1067.9" cy="590.5" r="2.1"/>
<circle class="st0" cx="-1074.3" cy="590.5" r="2.1"/>
<circle class="st0" cx="-1061.5" cy="590.5" r="2.1"/>
<circle class="st0" cx="-1067.9" cy="584.1" r="2.1"/>
<circle class="st0" cx="-1074.3" cy="584.1" r="2.1"/>
<circle class="st0" cx="-1061.5" cy="584.1" r="2.1"/>
<circle class="st0" cx="-1080.7" cy="584.1" r="2.1"/>
<circle class="st0" cx="-1055.2" cy="584.1" r="2.1"/>
<path class="st0" d="M-494.8,299.1c0,0.3-0.2,0.4-0.4,0.4h-0.1c-0.3,0-0.4-0.1-0.4-0.4v-1.5l-1.8,1.8c-0.2,0.2-0.4,0.2-0.6,0l0,0
	c-0.2-0.2-0.2-0.4,0-0.6l1.8-1.8h-1.5c-0.3,0-0.4-0.2-0.4-0.4v-0.1c0-0.3,0.1-0.4,0.4-0.4h2.6c0.3,0,0.4,0.1,0.4,0.4L-494.8,299.1z
	 M-495.2,295.6l-2.6,0c-0.3,0-0.5,0.1-0.7,0.3c-0.1,0.2-0.2,0.4-0.2,0.6v0.1c0,0.3,0.1,0.5,0.2,0.6c0.2,0.2,0.4,0.3,0.7,0.3h0.2
	l-0.9,0.9c-0.2,0.2-0.3,0.4-0.3,0.6c0,0.2,0.1,0.5,0.3,0.7l0,0c0.2,0.2,0.4,0.3,0.7,0.3c0.2,0,0.5-0.1,0.7-0.3l0.9-0.9v0.2
	c0,0.3,0.1,0.5,0.3,0.7c0.2,0.1,0.4,0.2,0.6,0.2h0.1c0.6,0,0.9-0.4,0.9-0.9v-2.6C-494.3,296-494.7,295.6-495.2,295.6z"/>
<path class="st0" d="M-494.9,303c0,0.7-0.3,0.9-0.9,0.9h-1.5c-0.2,0-0.4,0.1-0.6,0.3l-7.3,7.3c-0.2,0.2-0.4,0.3-0.6,0.3h-2.2
	c-0.5,0-0.9-0.2-0.9-0.9v-0.1c0-0.7,0.3-0.9,0.9-0.9h1.5c0.2,0,0.4-0.1,0.6-0.3l7.3-7.3c0.2-0.2,0.4-0.3,0.6-0.3h2.2
	c0.5,0,0.9,0.2,0.9,0.9V303z M-509.2,311.8h-1.1c-0.5,0-0.9-0.2-0.9-0.9v-0.1c0-0.7,0.3-0.9,0.9-0.9h1.1c-0.1,0.2-0.2,0.5-0.2,0.9
	v0.1C-509.4,311.3-509.3,311.6-509.2,311.8z M-506.6,308v1.4h-1.4L-506.6,308z M-507,305.1v-0.3c0-1.4,0.7-1.8,1.8-1.8h0.2
	c0.8,0,1.1,0.6,1.1,1.8c0,0.9-0.2,1.7-0.2,2.2l-1.9,1.9v-2.1C-506.6,306.7-507,306.2-507,305.1z M-505.3,300.8
	c0.5-0.1,0.9,0,1.1,0.6l0,0.1c0.2,0.7-0.1,0.9-0.6,1.1c-0.5,0.1-0.9,0-1.1-0.6l0-0.1C-506.1,301.3-505.8,301-505.3,300.8z
	 M-503.3,304.9c0,0,0-0.1,0-0.1l2.4-2.4c0.2-0.2,0.4-0.3,0.6-0.3h1.2l-4.4,4.4C-503.4,306-503.3,305.5-503.3,304.9z M-494.7,301.8
	c-0.2-0.2-0.6-0.3-1-0.3h-2.2c0,0,0,0,0,0c0,0,0,0,0,0h-2.2c-0.3,0-0.7,0.2-1,0.5l-2.1,2.1c-0.1-0.3-0.1-0.6-0.3-0.8
	c-0.1-0.1-0.2-0.3-0.4-0.4c0.1-0.1,0.2-0.2,0.2-0.2c0.2-0.3,0.2-0.7,0.1-1.2l0-0.1c-0.3-0.9-0.9-1.1-1.3-1.1c-0.2,0-0.3,0-0.5,0.1
	c-0.4,0.1-0.7,0.3-0.9,0.6c-0.2,0.3-0.2,0.7-0.1,1.2l0,0.1c0.1,0.2,0.1,0.4,0.2,0.5c-0.3,0.1-0.5,0.2-0.7,0.4
	c-0.4,0.4-0.7,1-0.7,1.8v0.3c0,0.6,0.1,1.1,0.3,1.5c0.2,0.3,0.4,0.5,0.7,0.6v0l-2,2c-0.1,0.1-0.2,0.2-0.2,0.2h-1.5
	c-0.4,0-0.8,0.1-1,0.3c-0.3,0.2-0.4,0.6-0.4,1.1v0.1c0,0.5,0.1,0.9,0.4,1.1c0.2,0.2,0.6,0.3,1,0.3h2.2c0,0,0,0,0,0c0,0,0,0,0,0h2.2
	c0.3,0,0.7-0.2,1-0.5l7.3-7.3c0.1-0.1,0.2-0.2,0.2-0.2h1.5c0.4,0,0.8-0.1,1-0.3c0.3-0.2,0.4-0.6,0.4-1.1v-0.1
	C-494.3,302.4-494.4,302.1-494.7,301.8z"/>
</svg>
