<?xml version="1.0" encoding="utf-8"?>
<!-- Generator: Adobe Illustrator 19.0.1, SVG Export Plug-In . SVG Version: 6.00 Build 0)  -->
<svg version="1.1" id="Layer_1" zoomAndPan="disable"
	 xmlns="http://www.w3.org/2000/svg" xmlns:xlink="http://www.w3.org/1999/xlink" x="0px" y="0px" viewBox="-521 295 36 18"
	 style="enable-background:new -521 295 36 18;" xml:space="preserve">
<style type="text/css">
	.st0{fill:#FFFFFF;}
	.st1{fill:#333333;}
</style>
<path class="st0" d="M-1065.8,596.9c0,2.8-4.2,2.8-4.2,0C-1070,594-1065.8,594-1065.8,596.9"/>
<circle class="st0" cx="-1067.9" cy="590.5" r="2.1"/>
<circle class="st0" cx="-1074.3" cy="590.5" r="2.1"/>
<circle class="st0" cx="-1061.5" cy="590.5" r="2.1"/>
<circle class="st0" cx="-1067.9" cy="584.1" r="2.1"/>
<circle class="st0" cx="-1074.3" cy="584.1" r="2.1"/>
<circle class="st0" cx="-1061.5" cy="584.1" r="2.1"/>
<circle class="st0" cx="-1080.7" cy="584.1" r="2.1"/>
<circle class="st0" cx="-1055.2" cy="584.1" r="2.1"/>
<path class="st1" d="M-1027.9,596.3c0,0.3-0.1,0.5-0.5,0.5h-3.1c-0.3,0-0.5-0.1-0.5-0.5v-3.1c0-0.4,0.2-0.5,0.5-0.5h0.1
	c0.3,0,0.5,0.1,0.5,0.5v1.8l2.1-2.1c0.2-0.2,0.4-0.3,0.7,0l0,0c0.3,0.3,0.2,0.5,0,0.7l-2.1,2.1h1.8
	C-1028,595.7-1027.9,595.9-1027.9,596.3L-1027.9,596.3z M-1028.4,595.1h-0.3l1.1-1.1c0.2-0.2,0.3-0.5,0.4-0.7c0-0.3-0.1-0.6-0.4-0.8
	l0,0c-0.2-0.2-0.5-0.4-0.8-0.4c-0.3,0-0.5,0.1-0.8,0.4l-1.1,1.1v-0.3c0-0.4-0.1-0.6-0.3-0.8c-0.2-0.2-0.5-0.3-0.8-0.3h-0.1
	c-0.7,0-1.1,0.4-1.1,1.1v3.1c0,0.7,0.4,1.1,1.1,1.1h3.1c0.4,0,0.6-0.1,0.8-0.3c0.2-0.2,0.3-0.5,0.3-0.8v-0.1c0-0.3-0.1-0.6-0.3-0.8
	C-1027.8,595.2-1028.1,595.1-1028.4,595.1z"/>
<path class="st0" d="M-493.3,301.4c0,0.8-0.4,1-1,1h-1.8c-0.2,0-0.5,0.1-0.7,0.4l-8.7,8.7c-0.3,0.3-0.5,0.4-0.7,0.4h-2.7
	c-0.7,0-1-0.2-1-1v-0.1c0-0.8,0.4-1,1-1h1.8c0.2,0,0.5-0.1,0.7-0.4l8.7-8.7c0.3-0.3,0.5-0.4,0.7-0.4h2.7c0.7,0,1,0.2,1,1V301.4z
	 M-510.4,311.9h-1.3c-0.7,0-1-0.2-1-1v-0.1c0-0.8,0.4-1,1-1h1.3c-0.2,0.3-0.3,0.6-0.3,1v0.1C-510.6,311.3-510.5,311.7-510.4,311.9z
	 M-504.2,304.3v1.8l-2.7,2.7c-0.2,0.2-0.3,0.2-0.3,0.2h-1.7L-504.2,304.3z M-502.5,299h0.2c1.4,0,2.2,0.5,2.2,2.2v0.3
	c0,0.2,0,0.4,0,0.6l-3.4,3.4c0-0.6,0-1.2,0-1.4c0-0.5-0.3-1.6-0.3-2.9C-503.8,299.8-503.5,299-502.5,299z M-502.7,296.3
	c0.6-0.2,1.1,0,1.3,0.7v0.1c0.2,0.8-0.1,1.1-0.7,1.3c-0.6,0.2-1.1,0-1.3-0.7v-0.1C-503.6,296.8-503.3,296.5-502.7,296.3z
	 M-498.3,300.2l-1.1,1.1v-0.2c0-0.4,0-0.7-0.1-1L-498.3,300.2L-498.3,300.2z M-493.1,299.9c-0.3-0.3-0.7-0.4-1.2-0.4h-2.7l0,0
	c0,0,0,0-0.1,0h-2.7c-0.1-0.2-0.3-0.4-0.4-0.6c-0.2-0.2-0.4-0.3-0.7-0.4l0.1-0.1c0.2-0.4,0.3-0.9,0.1-1.4v-0.1
	c-0.3-1.1-1.1-1.3-1.5-1.3c-0.2,0-0.4,0-0.6,0.1c-0.5,0.1-0.8,0.4-1.1,0.7c-0.2,0.4-0.3,0.9-0.1,1.4v0.1c0.1,0.3,0.2,0.6,0.4,0.8
	c-0.2,0.2-0.4,0.3-0.5,0.5c-0.3,0.5-0.4,1.1-0.4,1.9s0.1,1.6,0.2,2.1v0.1l-5.4,5.4c-0.2,0.2-0.3,0.2-0.3,0.2h-1.7
	c-0.5,0-0.9,0.1-1.2,0.4c-0.3,0.3-0.5,0.7-0.5,1.3v0.1c0,0.6,0.2,1,0.5,1.3s0.7,0.4,1.2,0.4h2.7l0,0c0,0,0,0,0.1,0h2.7
	c0.4,0,0.8-0.2,1.2-0.6l8.7-8.7c0.2-0.2,0.3-0.2,0.3-0.2h1.7c0.5,0,0.9-0.1,1.2-0.4c0.3-0.3,0.5-0.7,0.5-1.3v-0.1
	C-492.6,300.7-492.8,300.2-493.1,299.9z"/>
</svg>
